<?xml version="1.0" encoding="utf-8"?>
<!-- Generator: Adobe Illustrator 15.0.0, SVG Export Plug-In . SVG Version: 6.00 Build 0)  -->
<!DOCTYPE svg PUBLIC "-//W3C//DTD SVG 1.1//EN" "http://www.w3.org/Graphics/SVG/1.1/DTD/svg11.dtd">
<svg version="1.1" id="Layer_1" xmlns="http://www.w3.org/2000/svg" xmlns:xlink="http://www.w3.org/1999/xlink" x="0px" y="0px"
	 width="158.768px" height="35px" viewBox="0 0 158.768 35" enable-background="new 0 0 158.768 35" xml:space="preserve">
<path display="none" fill="#1B7EBA" d="M0,6h129.996v114.996l-65.319-10L0,120.996V6z"/>
<path display="none" fill="#2697DE" d="M-101.835-93.218h333.666v305.432L64.174,186.547l-166.009,25.667V-93.218z"/>
<g>
	<path fill="#FFFFFF" d="M96.844,19.089l0.799-0.931c0.932,1.061,2.444,2.097,4.521,2.097c2.941,0,3.785-1.644,3.785-2.876
		c0-4.239-8.651-2.032-8.651-7.073c0-2.357,2.12-3.851,4.737-3.851c2.141,0,3.785,0.757,4.888,2.033l-0.821,0.909
		c-1.039-1.254-2.508-1.816-4.131-1.816c-1.925,0-3.374,1.103-3.374,2.659c0,3.698,8.652,1.665,8.652,7.052
		c0,1.86-1.233,4.087-5.127,4.087C99.743,21.381,97.947,20.408,96.844,19.089z"/>
	<path fill="#FFFFFF" d="M110.104,24.172c0.239,0.107,0.648,0.172,0.909,0.172c0.693,0,1.168-0.281,1.6-1.275l0.822-1.86
		l-4.434-10.532h1.253l3.806,9.126l3.765-9.126h1.275l-5.407,12.739c-0.562,1.319-1.448,1.946-2.658,1.946
		c-0.367,0-0.845-0.065-1.125-0.152L110.104,24.172z"/>
	<path fill="#FFFFFF" d="M129.138,21.122v-1.666c-0.736,1.082-2.076,1.925-3.635,1.925c-2.769,0-4.65-2.121-4.65-5.472
		c0-3.308,1.881-5.493,4.65-5.493c1.493,0,2.813,0.756,3.635,1.946V6.694h1.147v14.427L129.138,21.122L129.138,21.122z
		 M129.138,18.504v-5.169c-0.607-1.017-1.968-1.904-3.44-1.904c-2.313,0-3.654,1.948-3.654,4.478s1.341,4.454,3.654,4.454
		C127.17,20.363,128.531,19.5,129.138,18.504z"/>
	<path fill="#FFFFFF" d="M132.601,19.954l1.34-2.336c0.563,0.54,1.299,1.038,2.294,1.038c1.362,0,2.249-0.931,2.249-2.314V6.696
		h3.093v9.689c0,3.394-2.143,4.995-5.082,4.995C135.022,21.381,133.638,20.971,132.601,19.954z"/>
	<path fill="#FFFFFF" d="M143.847,19.089l1.688-2.402c1.016,1.061,2.596,1.969,4.584,1.969c1.71,0,2.51-0.757,2.51-1.6
		c0-2.508-8.305-0.757-8.305-6.185c0-2.402,2.074-4.391,5.472-4.391c2.292,0,4.196,0.692,5.623,2.012l-1.708,2.292
		c-1.168-1.082-2.727-1.579-4.197-1.579c-1.297,0-2.032,0.562-2.032,1.427c0,2.271,8.284,0.736,8.284,6.122
		c0,2.639-1.904,4.628-5.774,4.628C147.201,21.381,145.211,20.453,143.847,19.089z"/>
</g>
<radialGradient id="SVGID_1_" cx="29.634" cy="13" r="17.5112" fx="45.3844" fy="13.9707" gradientUnits="userSpaceOnUse">
	<stop  offset="0" style="stop-color:#000000"/>
	<stop  offset="1" style="stop-color:#FFFFFF"/>
</radialGradient>
<path fill="url(#SVGID_1_)" d="M29.009,21.379c-0.125-0.004,0-7.462,0-7.462s-5.625-0.939-7.25-3.241s4.625-10.551,7.25-9.926
	s24.25,11.5,9.625,9.25s-11.5-5.715-11.625-3.545s15.875,11.92,7.75,8.42s15.375,11.723,7.375,10.486s17.75,6.514,7.625,4.014
	s-51.806,10.125-31,0.5S29.009,21.379,29.009,21.379z"/>
</svg>
